<svg width="56" height="83" viewBox="0 0 56 83" fill="none" xmlns="http://www.w3.org/2000/svg">
<g clip-path="url(#clip0_231_198)">
<path d="M53.6107 52.9724C54.4927 53.8439 53.8673 55.3333 52.6213 55.3333H29.4C28.6253 55.3333 28 55.9512 28 56.7167V79.6616C28 80.8927 26.4927 81.5106 25.6107 80.6391L0.546 55.8728C0.196 55.527 0 55.0567 0 54.5679V29.05C0 28.2846 0.625333 27.6667 1.4 27.6667H28L53.6107 52.9724Z" fill="black"/>
<path d="M28 27.6667L2.38932 2.36089C1.50732 1.48939 2.13266 0 3.37866 0H54.6C55.3747 0 56 0.617889 56 1.38333V26.2833C56 27.0488 55.3747 27.6667 54.6 27.6667H28Z" fill="black"/>
</g>
<defs>
<clipPath id="clip0_231_198">
<rect width="56" height="83" fill="white"/>
</clipPath>
</defs>
</svg>
