<svg width="1764" height="539" viewBox="0 0 1764 539" fill="none" xmlns="http://www.w3.org/2000/svg">
<path fill-rule="evenodd" clip-rule="evenodd" d="M0 0V94.3678H59.4278V129.295H0V416.086L27.9788 433.441V157.28H59.2109V454.267L86.9727 468.585V398.514L118.856 416.086V489.411L146.4 506.983V434.309L178.066 451.013V531.714L191.947 538.439L206.045 531.714V451.013L237.928 434.309V506.983L265.69 486.808V416.086L297.356 396.562V468.585L324.901 454.267V157.28H356.783V434.309L383.895 416.086V129.295H324.901V94.3678H383.895V0H297.356V65.7321H265.473V0H237.928V65.7321H206.262V0H178.066V65.7321H146.4V0H118.856V65.7321H86.9727V0H0ZM25.0731 28.3604V65.7634H59.1879V28.3604H25.0731ZM87.1374 94.535V151.256L157.011 174.684V290.182H227.296V174.684L297.17 150.845V94.535H87.1374ZM129.473 195.646L87.1374 181.672V362.521L129.473 388.005L171.808 337.86L129.473 293.059V195.646ZM191.948 358.822L151.257 401.98L191.948 429.929L232.228 401.98L191.948 358.822ZM255.245 293.059L210.855 337.86L255.245 388.005L297.581 362.521V181.672L255.245 195.646V293.059ZM325.119 28.3604H356.768V65.3524H325.119V28.3604Z" fill="black"/>
<path d="M510.5 381V150H540.2L593 259.89L645.8 150H675.5V381H648.44V203.46L603.56 296.85H582.44L537.56 203.79V381H510.5ZM736.751 381V150H880.961V175.08H764.471V251.97H871.061V277.05H764.471V355.92H880.961V381H736.751ZM1007.88 381V175.08H945.842V150H1097.64V175.08H1035.6V381H1007.88ZM1164.17 381V150H1235.12C1252.94 150 1267.57 152.97 1279.01 158.91C1290.67 164.85 1299.36 172.99 1305.08 183.33C1310.8 193.45 1313.66 205 1313.66 217.98C1313.66 233.16 1309.7 246.58 1301.78 258.24C1294.08 269.68 1282.2 277.71 1266.14 282.33L1316.3 381H1283.3L1236.77 286.29H1235.12H1191.89V381H1164.17ZM1191.89 260.88H1234.13C1251.73 260.88 1264.6 256.92 1272.74 249C1281.1 240.86 1285.28 230.52 1285.28 217.98C1285.28 204.78 1281.21 194.33 1273.07 186.63C1265.15 178.93 1252.06 175.08 1233.8 175.08H1191.89V260.88ZM1384.15 381V356.91H1436.62V174.09H1384.15V150H1516.81V174.09H1464.34V356.91H1516.81V381H1384.15ZM1579.39 381L1649.02 265.5L1579.39 150H1611.07L1665.52 240.42L1718.65 150H1750.33L1680.37 265.17L1750.33 381H1718.65L1663.87 290.25L1611.07 381H1579.39Z" fill="black"/>
</svg>
